<svg width="150" height="55" viewBox="0 0 106 39" fill="none" xmlns="http://www.w3.org/2000/svg">
<path d="M23.16 0.72H34.72V2.88H30.18V15H27.68V2.88H23.16V0.72Z" fill="white"/>
<path d="M33.8195 4.66H35.9595V6.66H35.9995C36.0662 6.38 36.1929 6.10667 36.3795 5.84C36.5795 5.57333 36.8129 5.33333 37.0795 5.12C37.3595 4.89333 37.6662 4.71333 37.9995 4.58C38.3329 4.44667 38.6729 4.38 39.0195 4.38C39.2862 4.38 39.4662 4.38667 39.5595 4.4C39.6662 4.41333 39.7729 4.42667 39.8795 4.44V6.64C39.7195 6.61333 39.5529 6.59333 39.3795 6.58C39.2195 6.55333 39.0595 6.54 38.8995 6.54C38.5129 6.54 38.1462 6.62 37.7995 6.78C37.4662 6.92667 37.1729 7.15333 36.9195 7.46C36.6662 7.75333 36.4662 8.12 36.3195 8.56C36.1729 9 36.0995 9.50667 36.0995 10.08V15H33.8195V4.66Z" fill="white"/>
<path d="M40.5108 0.72H42.7908V2.88H40.5108V0.72ZM40.5108 4.66H42.7908V15H40.5108V4.66Z" fill="white"/>
<path d="M44.935 4.66H47.095V6.06H47.135C47.455 5.46 47.9017 5.03333 48.475 4.78C49.0483 4.51333 49.6683 4.38 50.335 4.38C51.1483 4.38 51.855 4.52667 52.455 4.82C53.0683 5.1 53.575 5.49333 53.975 6C54.375 6.49333 54.675 7.07333 54.875 7.74C55.075 8.40667 55.175 9.12 55.175 9.88C55.175 10.5733 55.0817 11.2467 54.895 11.9C54.7217 12.5533 54.4483 13.1333 54.075 13.64C53.715 14.1333 53.255 14.5333 52.695 14.84C52.135 15.1333 51.475 15.28 50.715 15.28C50.3817 15.28 50.0483 15.2467 49.715 15.18C49.3817 15.1267 49.0617 15.0333 48.755 14.9C48.4483 14.7667 48.1617 14.6 47.895 14.4C47.6417 14.1867 47.4283 13.94 47.255 13.66H47.215V18.82H44.935V4.66ZM52.895 9.84C52.895 9.37333 52.835 8.92 52.715 8.48C52.595 8.04 52.415 7.65333 52.175 7.32C51.935 6.97333 51.635 6.7 51.275 6.5C50.915 6.28667 50.5017 6.18 50.035 6.18C49.075 6.18 48.3483 6.51333 47.855 7.18C47.375 7.84667 47.135 8.73333 47.135 9.84C47.135 10.36 47.195 10.8467 47.315 11.3C47.4483 11.74 47.6417 12.12 47.895 12.44C48.1483 12.76 48.4483 13.0133 48.795 13.2C49.155 13.3867 49.5683 13.48 50.035 13.48C50.555 13.48 50.995 13.3733 51.355 13.16C51.715 12.9467 52.0083 12.6733 52.235 12.34C52.475 11.9933 52.6417 11.6067 52.735 11.18C52.8417 10.74 52.895 10.2933 52.895 9.84Z" fill="white"/>
<path d="M56.7616 0.72H59.0416V15H56.7616V0.72Z" fill="white"/>
<path d="M68.2258 8.92C68.1991 8.56 68.1191 8.21333 67.9858 7.88C67.8658 7.54667 67.6925 7.26 67.4658 7.02C67.2524 6.76667 66.9858 6.56667 66.6658 6.42C66.3591 6.26 66.0125 6.18 65.6258 6.18C65.2258 6.18 64.8591 6.25333 64.5258 6.4C64.2058 6.53333 63.9258 6.72667 63.6858 6.98C63.4591 7.22 63.2724 7.50667 63.1258 7.84C62.9924 8.17333 62.9191 8.53333 62.9058 8.92H68.2258ZM62.9058 10.42C62.9058 10.82 62.9591 11.2067 63.0658 11.58C63.1858 11.9533 63.3591 12.28 63.5858 12.56C63.8124 12.84 64.0991 13.0667 64.4458 13.24C64.7924 13.4 65.2058 13.48 65.6858 13.48C66.3524 13.48 66.8858 13.34 67.2858 13.06C67.6991 12.7667 68.0058 12.3333 68.2058 11.76H70.3658C70.2458 12.32 70.0391 12.82 69.7458 13.26C69.4524 13.7 69.0991 14.0733 68.6858 14.38C68.2725 14.6733 67.8058 14.8933 67.2858 15.04C66.7791 15.2 66.2458 15.28 65.6858 15.28C64.8725 15.28 64.1525 15.1467 63.5258 14.88C62.8991 14.6133 62.3658 14.24 61.9258 13.76C61.4991 13.28 61.1724 12.7067 60.9458 12.04C60.7324 11.3733 60.6258 10.64 60.6258 9.84C60.6258 9.10667 60.7391 8.41333 60.9658 7.76C61.2058 7.09333 61.5391 6.51333 61.9658 6.02C62.4058 5.51333 62.9324 5.11333 63.5458 4.82C64.1591 4.52667 64.8525 4.38 65.6258 4.38C66.4391 4.38 67.1658 4.55333 67.8058 4.9C68.4591 5.23333 68.9991 5.68 69.4258 6.24C69.8524 6.8 70.1591 7.44667 70.3458 8.18C70.5458 8.9 70.5991 9.64667 70.5058 10.42H62.9058Z" fill="white"/>
<path d="M24.52 20.72H34.8V22.88H27.02V26.62H34.22V28.66H27.02V32.84H34.94V35H24.52V20.72Z" fill="white"/>
<path d="M38.1177 31.68C38.1843 32.3467 38.4377 32.8133 38.8777 33.08C39.3177 33.3467 39.8443 33.48 40.4577 33.48C40.671 33.48 40.911 33.4667 41.1777 33.44C41.4577 33.4 41.7177 33.3333 41.9577 33.24C42.1977 33.1467 42.391 33.0133 42.5377 32.84C42.6977 32.6533 42.771 32.4133 42.7577 32.12C42.7443 31.8267 42.6377 31.5867 42.4377 31.4C42.2377 31.2133 41.9777 31.0667 41.6577 30.96C41.351 30.84 40.9977 30.74 40.5977 30.66C40.1977 30.58 39.791 30.4933 39.3777 30.4C38.951 30.3067 38.5377 30.1933 38.1377 30.06C37.751 29.9267 37.3977 29.7467 37.0777 29.52C36.771 29.2933 36.5243 29.0067 36.3377 28.66C36.151 28.3 36.0577 27.86 36.0577 27.34C36.0577 26.78 36.191 26.3133 36.4577 25.94C36.7377 25.5533 37.0843 25.2467 37.4977 25.02C37.9243 24.78 38.391 24.6133 38.8977 24.52C39.4177 24.4267 39.911 24.38 40.3777 24.38C40.911 24.38 41.4177 24.44 41.8977 24.56C42.391 24.6667 42.831 24.8467 43.2177 25.1C43.6177 25.3533 43.9443 25.6867 44.1977 26.1C44.4643 26.5 44.631 26.9867 44.6977 27.56H42.3177C42.211 27.0133 41.9577 26.6467 41.5577 26.46C41.171 26.2733 40.7243 26.18 40.2177 26.18C40.0577 26.18 39.8643 26.1933 39.6377 26.22C39.4243 26.2467 39.2177 26.3 39.0177 26.38C38.831 26.4467 38.671 26.5533 38.5377 26.7C38.4043 26.8333 38.3377 27.0133 38.3377 27.24C38.3377 27.52 38.431 27.7467 38.6177 27.92C38.8177 28.0933 39.071 28.24 39.3777 28.36C39.6977 28.4667 40.0577 28.56 40.4577 28.64C40.8577 28.72 41.271 28.8067 41.6977 28.9C42.111 28.9933 42.5177 29.1067 42.9177 29.24C43.3177 29.3733 43.671 29.5533 43.9777 29.78C44.2977 30.0067 44.551 30.2933 44.7377 30.64C44.9377 30.9867 45.0377 31.4133 45.0377 31.92C45.0377 32.5333 44.8977 33.0533 44.6177 33.48C44.3377 33.9067 43.971 34.2533 43.5177 34.52C43.0777 34.7867 42.5843 34.98 42.0377 35.1C41.491 35.22 40.951 35.28 40.4177 35.28C39.7643 35.28 39.1577 35.2067 38.5977 35.06C38.051 34.9133 37.571 34.6933 37.1577 34.4C36.7577 34.0933 36.4377 33.72 36.1977 33.28C35.971 32.8267 35.851 32.2933 35.8377 31.68H38.1177Z" fill="white"/>
<path d="M46.4288 24.66H48.5888V26.06H48.6287C48.9487 25.46 49.3954 25.0333 49.9688 24.78C50.5421 24.5133 51.1621 24.38 51.8288 24.38C52.6421 24.38 53.3488 24.5267 53.9488 24.82C54.5621 25.1 55.0688 25.4933 55.4688 26C55.8688 26.4933 56.1688 27.0733 56.3688 27.74C56.5688 28.4067 56.6688 29.12 56.6688 29.88C56.6688 30.5733 56.5754 31.2467 56.3888 31.9C56.2154 32.5533 55.9421 33.1333 55.5688 33.64C55.2088 34.1333 54.7488 34.5333 54.1888 34.84C53.6287 35.1333 52.9688 35.28 52.2088 35.28C51.8754 35.28 51.5421 35.2467 51.2088 35.18C50.8754 35.1267 50.5554 35.0333 50.2488 34.9C49.9421 34.7667 49.6554 34.6 49.3888 34.4C49.1354 34.1867 48.9221 33.94 48.7488 33.66H48.7088V38.82H46.4288V24.66ZM54.3888 29.84C54.3888 29.3733 54.3288 28.92 54.2088 28.48C54.0888 28.04 53.9088 27.6533 53.6688 27.32C53.4287 26.9733 53.1288 26.7 52.7688 26.5C52.4088 26.2867 51.9954 26.18 51.5288 26.18C50.5688 26.18 49.8421 26.5133 49.3488 27.18C48.8688 27.8467 48.6287 28.7333 48.6287 29.84C48.6287 30.36 48.6888 30.8467 48.8088 31.3C48.9421 31.74 49.1354 32.12 49.3888 32.44C49.6421 32.76 49.9421 33.0133 50.2888 33.2C50.6488 33.3867 51.0621 33.48 51.5288 33.48C52.0488 33.48 52.4888 33.3733 52.8488 33.16C53.2088 32.9467 53.5021 32.6733 53.7288 32.34C53.9688 31.9933 54.1354 31.6067 54.2288 31.18C54.3354 30.74 54.3888 30.2933 54.3888 29.84Z" fill="white"/>
<path d="M58.1953 24.66H60.3353V26.66H60.3753C60.442 26.38 60.5686 26.1067 60.7553 25.84C60.9553 25.5733 61.1886 25.3333 61.4553 25.12C61.7353 24.8933 62.042 24.7133 62.3753 24.58C62.7086 24.4467 63.0486 24.38 63.3953 24.38C63.662 24.38 63.842 24.3867 63.9353 24.4C64.042 24.4133 64.1486 24.4267 64.2553 24.44V26.64C64.0953 26.6133 63.9286 26.5933 63.7553 26.58C63.5953 26.5533 63.4353 26.54 63.2753 26.54C62.8886 26.54 62.522 26.62 62.1753 26.78C61.842 26.9267 61.5486 27.1533 61.2953 27.46C61.042 27.7533 60.842 28.12 60.6953 28.56C60.5486 29 60.4753 29.5067 60.4753 30.08V35H58.1953V24.66Z" fill="white"/>
<path d="M71.575 28.92C71.5483 28.56 71.4683 28.2133 71.335 27.88C71.215 27.5467 71.0417 27.26 70.815 27.02C70.6017 26.7667 70.335 26.5667 70.015 26.42C69.7083 26.26 69.3617 26.18 68.975 26.18C68.575 26.18 68.2083 26.2533 67.875 26.4C67.555 26.5333 67.275 26.7267 67.035 26.98C66.8083 27.22 66.6217 27.5067 66.475 27.84C66.3417 28.1733 66.2683 28.5333 66.255 28.92H71.575ZM66.255 30.42C66.255 30.82 66.3083 31.2067 66.415 31.58C66.535 31.9533 66.7083 32.28 66.935 32.56C67.1617 32.84 67.4483 33.0667 67.795 33.24C68.1417 33.4 68.555 33.48 69.035 33.48C69.7017 33.48 70.235 33.34 70.635 33.06C71.0483 32.7667 71.355 32.3333 71.555 31.76H73.715C73.595 32.32 73.3883 32.82 73.095 33.26C72.8017 33.7 72.4483 34.0733 72.035 34.38C71.6217 34.6733 71.155 34.8933 70.635 35.04C70.1283 35.2 69.595 35.28 69.035 35.28C68.2217 35.28 67.5017 35.1467 66.875 34.88C66.2483 34.6133 65.715 34.24 65.275 33.76C64.8483 33.28 64.5217 32.7067 64.295 32.04C64.0817 31.3733 63.975 30.64 63.975 29.84C63.975 29.1067 64.0883 28.4133 64.315 27.76C64.555 27.0933 64.8883 26.5133 65.315 26.02C65.755 25.5133 66.2817 25.1133 66.895 24.82C67.5083 24.5267 68.2017 24.38 68.975 24.38C69.7883 24.38 70.515 24.5533 71.155 24.9C71.8083 25.2333 72.3483 25.68 72.775 26.24C73.2017 26.8 73.5083 27.4467 73.695 28.18C73.895 28.9 73.9483 29.6467 73.855 30.42H66.255Z" fill="white"/>
<path d="M76.9083 31.68C76.9749 32.3467 77.2283 32.8133 77.6683 33.08C78.1083 33.3467 78.6349 33.48 79.2483 33.48C79.4616 33.48 79.7016 33.4667 79.9683 33.44C80.2483 33.4 80.5083 33.3333 80.7483 33.24C80.9883 33.1467 81.1816 33.0133 81.3283 32.84C81.4883 32.6533 81.5616 32.4133 81.5483 32.12C81.5349 31.8267 81.4283 31.5867 81.2283 31.4C81.0283 31.2133 80.7683 31.0667 80.4483 30.96C80.1416 30.84 79.7883 30.74 79.3883 30.66C78.9883 30.58 78.5816 30.4933 78.1683 30.4C77.7416 30.3067 77.3283 30.1933 76.9283 30.06C76.5416 29.9267 76.1883 29.7467 75.8683 29.52C75.5616 29.2933 75.3149 29.0067 75.1283 28.66C74.9416 28.3 74.8483 27.86 74.8483 27.34C74.8483 26.78 74.9816 26.3133 75.2483 25.94C75.5283 25.5533 75.875 25.2467 76.2883 25.02C76.715 24.78 77.1816 24.6133 77.6883 24.52C78.2083 24.4267 78.7016 24.38 79.1683 24.38C79.7016 24.38 80.2083 24.44 80.6883 24.56C81.1816 24.6667 81.6216 24.8467 82.0083 25.1C82.4083 25.3533 82.7349 25.6867 82.9883 26.1C83.255 26.5 83.4216 26.9867 83.4883 27.56H81.1083C81.0016 27.0133 80.7483 26.6467 80.3483 26.46C79.9616 26.2733 79.515 26.18 79.0083 26.18C78.8483 26.18 78.655 26.1933 78.4283 26.22C78.215 26.2467 78.0083 26.3 77.8083 26.38C77.6216 26.4467 77.4616 26.5533 77.3283 26.7C77.195 26.8333 77.1283 27.0133 77.1283 27.24C77.1283 27.52 77.2216 27.7467 77.4083 27.92C77.6083 28.0933 77.8616 28.24 78.1683 28.36C78.4883 28.4667 78.8483 28.56 79.2483 28.64C79.6483 28.72 80.0616 28.8067 80.4883 28.9C80.9016 28.9933 81.3083 29.1067 81.7083 29.24C82.1083 29.3733 82.4616 29.5533 82.7683 29.78C83.0883 30.0067 83.3416 30.2933 83.5283 30.64C83.7283 30.9867 83.8283 31.4133 83.8283 31.92C83.8283 32.5333 83.6883 33.0533 83.4083 33.48C83.1283 33.9067 82.7616 34.2533 82.3083 34.52C81.8683 34.7867 81.375 34.98 80.8283 35.1C80.2816 35.22 79.7416 35.28 79.2083 35.28C78.5549 35.28 77.9483 35.2067 77.3883 35.06C76.8416 34.9133 76.3616 34.6933 75.9483 34.4C75.5483 34.0933 75.2283 33.72 74.9883 33.28C74.7616 32.8267 74.6416 32.2933 74.6283 31.68H76.9083Z" fill="white"/>
<path d="M86.8794 31.68C86.946 32.3467 87.1994 32.8133 87.6394 33.08C88.0794 33.3467 88.606 33.48 89.2194 33.48C89.4327 33.48 89.6727 33.4667 89.9394 33.44C90.2194 33.4 90.4794 33.3333 90.7194 33.24C90.9594 33.1467 91.1527 33.0133 91.2994 32.84C91.4594 32.6533 91.5327 32.4133 91.5194 32.12C91.506 31.8267 91.3994 31.5867 91.1994 31.4C90.9994 31.2133 90.7394 31.0667 90.4194 30.96C90.1127 30.84 89.7594 30.74 89.3594 30.66C88.9594 30.58 88.5527 30.4933 88.1394 30.4C87.7127 30.3067 87.2994 30.1933 86.8994 30.06C86.5127 29.9267 86.1594 29.7467 85.8394 29.52C85.5327 29.2933 85.286 29.0067 85.0994 28.66C84.9127 28.3 84.8194 27.86 84.8194 27.34C84.8194 26.78 84.9527 26.3133 85.2194 25.94C85.4994 25.5533 85.846 25.2467 86.2594 25.02C86.686 24.78 87.1527 24.6133 87.6594 24.52C88.1794 24.4267 88.6727 24.38 89.1394 24.38C89.6727 24.38 90.1794 24.44 90.6594 24.56C91.1527 24.6667 91.5927 24.8467 91.9794 25.1C92.3794 25.3533 92.706 25.6867 92.9594 26.1C93.226 26.5 93.3927 26.9867 93.4594 27.56H91.0794C90.9727 27.0133 90.7194 26.6467 90.3194 26.46C89.9327 26.2733 89.486 26.18 88.9794 26.18C88.8194 26.18 88.626 26.1933 88.3994 26.22C88.186 26.2467 87.9794 26.3 87.7794 26.38C87.5927 26.4467 87.4327 26.5533 87.2994 26.7C87.166 26.8333 87.0994 27.0133 87.0994 27.24C87.0994 27.52 87.1927 27.7467 87.3794 27.92C87.5794 28.0933 87.8327 28.24 88.1394 28.36C88.4594 28.4667 88.8194 28.56 89.2194 28.64C89.6194 28.72 90.0327 28.8067 90.4594 28.9C90.8727 28.9933 91.2794 29.1067 91.6794 29.24C92.0794 29.3733 92.4327 29.5533 92.7394 29.78C93.0594 30.0067 93.3127 30.2933 93.4994 30.64C93.6994 30.9867 93.7994 31.4133 93.7994 31.92C93.7994 32.5333 93.6594 33.0533 93.3794 33.48C93.0994 33.9067 92.7327 34.2533 92.2794 34.52C91.8394 34.7867 91.346 34.98 90.7994 35.1C90.2527 35.22 89.7127 35.28 89.1794 35.28C88.526 35.28 87.9194 35.2067 87.3594 35.06C86.8127 34.9133 86.3327 34.6933 85.9194 34.4C85.5194 34.0933 85.1994 33.72 84.9594 33.28C84.7327 32.8267 84.6127 32.2933 84.5994 31.68H86.8794Z" fill="white"/>
<path d="M99.8705 35.28C99.0438 35.28 98.3038 35.1467 97.6505 34.88C97.0105 34.6 96.4638 34.22 96.0105 33.74C95.5705 33.26 95.2305 32.6867 94.9905 32.02C94.7638 31.3533 94.6505 30.62 94.6505 29.82C94.6505 29.0333 94.7638 28.3067 94.9905 27.64C95.2305 26.9733 95.5705 26.4 96.0105 25.92C96.4638 25.44 97.0105 25.0667 97.6505 24.8C98.3038 24.52 99.0438 24.38 99.8705 24.38C100.697 24.38 101.43 24.52 102.07 24.8C102.724 25.0667 103.27 25.44 103.71 25.92C104.164 26.4 104.504 26.9733 104.73 27.64C104.97 28.3067 105.09 29.0333 105.09 29.82C105.09 30.62 104.97 31.3533 104.73 32.02C104.504 32.6867 104.164 33.26 103.71 33.74C103.27 34.22 102.724 34.6 102.07 34.88C101.43 35.1467 100.697 35.28 99.8705 35.28ZM99.8705 33.48C100.377 33.48 100.817 33.3733 101.19 33.16C101.564 32.9467 101.87 32.6667 102.11 32.32C102.35 31.9733 102.524 31.5867 102.63 31.16C102.75 30.72 102.81 30.2733 102.81 29.82C102.81 29.38 102.75 28.94 102.63 28.5C102.524 28.06 102.35 27.6733 102.11 27.34C101.87 26.9933 101.564 26.7133 101.19 26.5C100.817 26.2867 100.377 26.18 99.8705 26.18C99.3638 26.18 98.9238 26.2867 98.5505 26.5C98.1771 26.7133 97.8705 26.9933 97.6305 27.34C97.3905 27.6733 97.2105 28.06 97.0905 28.5C96.9838 28.94 96.9305 29.38 96.9305 29.82C96.9305 30.2733 96.9838 30.72 97.0905 31.16C97.2105 31.5867 97.3905 31.9733 97.6305 32.32C97.8705 32.6667 98.1771 32.9467 98.5505 33.16C98.9238 33.3733 99.3638 33.48 99.8705 33.48Z" fill="white"/>
<path d="M17.5 0C7.83502 4.2247e-07 -4.2247e-07 7.83502 0 17.5C4.2247e-07 27.165 7.83502 35 17.5 35V0Z" fill="white"/>
<path d="M17.5 3.75C9.9061 3.75 3.75001 9.90609 3.75001 17.5C3.75001 25.0939 9.9061 31.25 17.5 31.25L17.5 3.75Z" fill="white"/>
<path d="M17.5 7.08334L17.5 27.9167C11.747 27.9167 7.08335 23.253 7.08335 17.5C7.08335 11.747 11.747 7.08334 17.5 7.08334Z" fill="white"/>
<path d="M17.5 10.8333V24.1667C13.8181 24.1667 10.8333 21.1819 10.8333 17.5C10.8333 13.8181 13.8181 10.8333 17.5 10.8333Z" fill="white"/>
<path d="M17.5 14.5833V20.4167C15.8892 20.4167 14.5833 19.1108 14.5833 17.5C14.5833 15.8892 15.8892 14.5833 17.5 14.5833Z" fill="white"/>
</svg>
